<svg id="svg4" xmlns="http://www.w3.org/2000/svg" viewBox="0 0 24 24"><path id="path2" d="M23.19,7.88c0-5.21-3.41-6.73-3.41-6.73C16.43-.39,7.54-.37,4.22,1.15c0,0-3.41,1.52-3.41,6.73,0,6.2-.35,13.89,5.66,15.48A17.69,17.69,0,0,0,12,24a11,11,0,0,0,4.25-1l-.09-2a14,14,0,0,1-4.13.54c-2.17-.07-4.45-.24-4.8-2.89a5.9,5.9,0,0,1-.05-.75,25.49,25.49,0,0,0,9.57.36c3-.36,5.63-2.21,6-3.9a39.9,39.9,0,0,0,.48-6.51Zm-4,6.71h-2.5V8.47c0-2.66-3.43-2.76-3.43.37v3.35H10.76V8.84c0-3.13-3.42-3-3.42-.37v6.12H4.83c0-6.54-.27-7.93,1-9.38a3.59,3.59,0,0,1,5.56.33l.62,1,.62-1a3.6,3.6,0,0,1,5.56-.33c1.27,1.46,1,2.84,1,9.38Z"/></svg>